<svg xmlns="http://www.w3.org/2000/svg" xmlns:xlink="http://www.w3.org/1999/xlink" width="600" zoomAndPan="magnify" viewBox="0 0 450 74.999997" height="100" preserveAspectRatio="xMidYMid meet" version="1.0"><defs><g/></defs><g fill="#004aad" fill-opacity="1"><g transform="translate(5.679389, 55.597931)"><g><path d="M 14.648438 11.285156 L 14.648438 -2.902344 C 17.617188 -0.328125 21.578125 0.792969 25.472656 0.792969 C 36.160156 0.792969 44.476562 -6.796875 44.476562 -17.949219 C 44.476562 -29.234375 35.898438 -37.28125 24.019531 -37.28125 C 12.140625 -37.28125 3.628906 -29.234375 3.628906 -17.554688 L 3.628906 11.285156 Z M 24.019531 -8.511719 C 18.542969 -8.511719 14.648438 -12.339844 14.648438 -18.148438 C 14.648438 -24.019531 18.609375 -27.914062 24.085938 -27.914062 C 29.5625 -27.914062 33.457031 -24.019531 33.457031 -18.210938 C 33.457031 -12.339844 29.496094 -8.511719 24.019531 -8.511719 Z M 24.019531 -8.511719 "/></g></g></g><g fill="#ff6300" fill-opacity="1"><g transform="translate(47.582242, 55.716703)"><g><path d="M 32.550781 -49.125 L 32.550781 -34.015625 C 29.554688 -36.34375 25.695312 -37.609375 21.632812 -37.609375 C 10.851562 -37.609375 2.464844 -29.953125 2.464844 -18.703125 C 2.464844 -7.320312 11.117188 0.796875 23.097656 0.796875 C 35.078125 0.796875 43.667969 -7.320312 43.667969 -19.105469 L 43.667969 -49.125 Z M 23.03125 -8.652344 C 17.507812 -8.652344 13.578125 -12.582031 13.578125 -18.4375 C 13.578125 -24.363281 17.574219 -28.222656 23.097656 -28.222656 C 28.621094 -28.222656 32.550781 -24.363281 32.550781 -18.570312 C 32.550781 -12.582031 28.554688 -8.652344 23.03125 -8.652344 Z M 23.03125 -8.652344 "/></g></g></g><g fill="#ff6300" fill-opacity="1"><g transform="translate(233.749938, 40.208205)"><g><path d="M 12.78125 0.496094 C 15.6875 0.496094 18.34375 -0.457031 20.292969 -2.574219 L 20.292969 0 L 27.097656 0 L 27.097656 -30.625 L 20.292969 -30.625 L 20.292969 -20.417969 C 18.34375 -22.535156 15.726562 -23.445312 12.824219 -23.445312 C 6.597656 -23.445312 1.785156 -18.632812 1.785156 -11.578125 C 1.785156 -4.480469 6.679688 0.496094 12.78125 0.496094 Z M 14.359375 -5.394531 C 10.957031 -5.394531 8.632812 -7.84375 8.632812 -11.535156 C 8.632812 -15.105469 10.996094 -17.554688 14.359375 -17.554688 C 17.96875 -17.554688 20.292969 -15.148438 20.292969 -11.453125 C 20.292969 -8.132812 18.09375 -5.394531 14.359375 -5.394531 Z M 14.359375 -5.394531 "/></g></g></g><g fill="#ff6300" fill-opacity="1"><g transform="translate(263.5039, 40.208205)"><g><path d="M 24.652344 -9.460938 C 25.105469 -10.664062 25.398438 -11.910156 25.398438 -13.363281 C 25.398438 -19.132812 20.625 -23.445312 14.027344 -23.445312 C 6.558594 -23.445312 1.535156 -18.382812 1.535156 -11.496094 C 1.535156 -4.398438 7.011719 0.496094 14.316406 0.496094 C 17.554688 0.496094 20.210938 -0.164062 22.824219 -1.824219 L 21.246094 -6.847656 C 19.378906 -5.644531 16.890625 -5.0625 14.898438 -5.0625 C 11.535156 -5.0625 9.089844 -6.433594 8.425781 -9.460938 Z M 13.820312 -17.929688 C 16.640625 -17.929688 18.550781 -16.476562 18.675781 -13.527344 L 8.425781 -13.488281 C 9.003906 -16.308594 10.832031 -17.929688 13.820312 -17.929688 Z M 13.820312 -17.929688 "/></g></g></g><g fill="#ff6300" fill-opacity="1"><g transform="translate(290.436009, 40.208205)"><g><path d="M 17.265625 -22.949219 L 9.460938 -13.902344 L 9.460938 -30.625 L 2.613281 -30.625 L 2.613281 0 L 9.460938 0 L 9.460938 -9.296875 L 17.347656 0 L 25.9375 0 L 15.726562 -11.621094 L 25.9375 -22.949219 Z M 17.265625 -22.949219 "/></g></g></g><g fill="#ff6300" fill-opacity="1"><g transform="translate(316.994636, 40.208205)"><g><path d="M 17.015625 -23.445312 C 13.527344 -23.445312 11.039062 -21.996094 9.460938 -19.878906 L 9.460938 -30.625 L 2.613281 -30.625 L 2.613281 0 L 9.460938 0 L 9.460938 -13.28125 C 10.332031 -15.644531 12.324219 -17.347656 14.855469 -17.347656 C 17.761719 -17.347656 19.214844 -15.726562 19.214844 -12.617188 L 19.214844 0 L 26.0625 0 L 26.0625 -13.902344 C 26.0625 -19.917969 22.535156 -23.445312 17.015625 -23.445312 Z M 17.015625 -23.445312 "/></g></g></g><g fill="#ff6300" fill-opacity="1"><g transform="translate(345.337672, 40.208205)"><g><path d="M 14.359375 0.496094 C 21.828125 0.496094 27.222656 -4.605469 27.222656 -11.535156 C 27.222656 -18.425781 21.828125 -23.445312 14.398438 -23.445312 C 6.972656 -23.445312 1.535156 -18.425781 1.535156 -11.496094 C 1.535156 -4.566406 6.929688 0.496094 14.359375 0.496094 Z M 14.398438 -5.394531 C 10.957031 -5.394531 8.464844 -7.84375 8.464844 -11.578125 C 8.464844 -15.1875 10.957031 -17.597656 14.359375 -17.597656 C 17.804688 -17.597656 20.292969 -15.1875 20.292969 -11.496094 C 20.292969 -7.84375 17.804688 -5.394531 14.398438 -5.394531 Z M 14.398438 -5.394531 "/></g></g></g><g fill="#004aad" fill-opacity="1"><g transform="translate(118.477964, 40.208205)"><g><path d="M 9.460938 7.136719 L 9.460938 -2.53125 C 11.414062 -0.414062 14.027344 0.496094 16.933594 0.496094 C 23.15625 0.496094 27.929688 -4.316406 27.929688 -11.414062 C 27.929688 -18.46875 23.074219 -23.445312 16.972656 -23.445312 C 14.066406 -23.445312 11.414062 -22.492188 9.460938 -20.375 L 9.460938 -22.949219 L 2.613281 -22.949219 L 2.613281 7.136719 Z M 15.394531 -5.394531 C 11.910156 -5.394531 9.460938 -7.71875 9.460938 -11.496094 C 9.503906 -14.773438 11.660156 -17.554688 15.394531 -17.554688 C 18.800781 -17.554688 21.082031 -15.105469 21.082031 -11.414062 C 21.082031 -7.84375 18.757812 -5.394531 15.394531 -5.394531 Z M 15.394531 -5.394531 "/></g></g></g><g fill="#004aad" fill-opacity="1"><g transform="translate(147.982934, 40.208205)"><g><path d="M 12.035156 -23.445312 C 9.089844 -23.445312 6.140625 -22.992188 3.570312 -22.203125 L 4.234375 -16.558594 C 6.265625 -17.347656 8.714844 -17.804688 11.289062 -17.804688 C 14.855469 -17.804688 16.601562 -16.476562 16.601562 -13.902344 L 16.601562 -13.734375 C 14.816406 -13.902344 12.324219 -14.027344 10.207031 -14.027344 C 3.859375 -14.027344 1.078125 -10.996094 1.078125 -6.804688 C 1.078125 -2.488281 4.273438 0.496094 9.089844 0.496094 C 12.742188 0.496094 15.355469 -1.039062 16.640625 -2.90625 L 16.640625 0 L 23.488281 0 L 23.488281 -13.40625 C 23.488281 -19.585938 20.003906 -23.445312 12.035156 -23.445312 Z M 11.414062 -4.898438 C 9.046875 -4.898438 7.636719 -5.769531 7.636719 -7.429688 C 7.636719 -9.089844 8.796875 -10.207031 12.160156 -10.207031 C 13.902344 -10.207031 15.273438 -10.125 16.601562 -9.960938 L 16.601562 -9.378906 C 16.390625 -6.765625 14.691406 -4.898438 11.414062 -4.898438 Z M 11.414062 -4.898438 "/></g></g></g><g fill="#004aad" fill-opacity="1"><g transform="translate(173.753096, 40.208205)"><g><path d="M 9.585938 -25.105469 L 9.585938 -30.460938 L 2.488281 -30.460938 L 2.488281 -25.105469 Z M 9.460938 0 L 9.460938 -22.949219 L 2.613281 -22.949219 L 2.613281 0 Z M 9.460938 0 "/></g></g></g><g fill="#004aad" fill-opacity="1"><g transform="translate(185.828974, 40.208205)"><g><path d="M 10.957031 0.496094 C 16.722656 0.496094 21.414062 -1.867188 21.457031 -7.011719 C 21.457031 -10.957031 19.046875 -13.113281 12.160156 -14.398438 C 8.714844 -15.023438 7.886719 -15.519531 7.886719 -16.476562 C 7.925781 -17.636719 8.964844 -18.011719 10.957031 -18.011719 C 13.777344 -18.011719 16.933594 -17.304688 19.253906 -16.183594 L 20.128906 -21.789062 C 17.597656 -22.742188 14.609375 -23.445312 11.371094 -23.445312 C 5.976562 -23.445312 1.371094 -21.164062 1.285156 -16.058594 C 1.285156 -12.160156 3.609375 -10.167969 10.292969 -9.089844 C 13.777344 -8.507812 14.898438 -8.007812 14.898438 -6.804688 C 14.898438 -5.269531 13.195312 -4.980469 11.371094 -4.980469 C 8.300781 -4.980469 4.980469 -5.726562 1.992188 -7.179688 L 0.996094 -1.578125 C 3.902344 -0.207031 6.972656 0.496094 10.957031 0.496094 Z M 10.957031 0.496094 "/></g></g></g><g fill="#004aad" fill-opacity="1"><g transform="translate(208.320812, 40.208205)"><g><path d="M 12.035156 -23.445312 C 9.089844 -23.445312 6.140625 -22.992188 3.570312 -22.203125 L 4.234375 -16.558594 C 6.265625 -17.347656 8.714844 -17.804688 11.289062 -17.804688 C 14.855469 -17.804688 16.601562 -16.476562 16.601562 -13.902344 L 16.601562 -13.734375 C 14.816406 -13.902344 12.324219 -14.027344 10.207031 -14.027344 C 3.859375 -14.027344 1.078125 -10.996094 1.078125 -6.804688 C 1.078125 -2.488281 4.273438 0.496094 9.089844 0.496094 C 12.742188 0.496094 15.355469 -1.039062 16.640625 -2.90625 L 16.640625 0 L 23.488281 0 L 23.488281 -13.40625 C 23.488281 -19.585938 20.003906 -23.445312 12.035156 -23.445312 Z M 11.414062 -4.898438 C 9.046875 -4.898438 7.636719 -5.769531 7.636719 -7.429688 C 7.636719 -9.089844 8.796875 -10.207031 12.160156 -10.207031 C 13.902344 -10.207031 15.273438 -10.125 16.601562 -9.960938 L 16.601562 -9.378906 C 16.390625 -6.765625 14.691406 -4.898438 11.414062 -4.898438 Z M 11.414062 -4.898438 "/></g></g></g><g fill="#004aad" fill-opacity="1"><g transform="translate(143.863243, 66.531896)"><g><path d="M 3.1875 2.40625 L 3.1875 -0.851562 C 3.84375 -0.140625 4.726562 0.167969 5.703125 0.167969 C 7.800781 0.167969 9.410156 -1.453125 9.410156 -3.84375 C 9.410156 -6.222656 7.773438 -7.898438 5.71875 -7.898438 C 4.738281 -7.898438 3.84375 -7.578125 3.1875 -6.863281 L 3.1875 -7.730469 L 0.878906 -7.730469 L 0.878906 2.40625 Z M 5.1875 -1.816406 C 4.011719 -1.816406 3.1875 -2.601562 3.1875 -3.871094 C 3.203125 -4.976562 3.929688 -5.914062 5.1875 -5.914062 C 6.332031 -5.914062 7.101562 -5.089844 7.101562 -3.84375 C 7.101562 -2.640625 6.320312 -1.816406 5.1875 -1.816406 Z M 5.1875 -1.816406 "/></g></g></g><g fill="#004aad" fill-opacity="1"><g transform="translate(153.797969, 66.531896)"><g><path d="M 4.054688 -7.898438 C 3.0625 -7.898438 2.070312 -7.746094 1.203125 -7.480469 L 1.425781 -5.578125 C 2.109375 -5.84375 2.9375 -6 3.804688 -6 C 5.003906 -6 5.59375 -5.550781 5.59375 -4.683594 L 5.59375 -4.628906 C 4.992188 -4.683594 4.152344 -4.726562 3.441406 -4.726562 C 1.300781 -4.726562 0.363281 -3.707031 0.363281 -2.292969 C 0.363281 -0.839844 1.441406 0.167969 3.0625 0.167969 C 4.292969 0.167969 5.171875 -0.347656 5.605469 -0.980469 L 5.605469 0 L 7.914062 0 L 7.914062 -4.515625 C 7.914062 -6.597656 6.738281 -7.898438 4.054688 -7.898438 Z M 3.84375 -1.648438 C 3.046875 -1.648438 2.574219 -1.945312 2.574219 -2.503906 C 2.574219 -3.0625 2.964844 -3.441406 4.097656 -3.441406 C 4.683594 -3.441406 5.144531 -3.410156 5.59375 -3.355469 L 5.59375 -3.160156 C 5.523438 -2.277344 4.949219 -1.648438 3.84375 -1.648438 Z M 3.84375 -1.648438 "/></g></g></g><g fill="#004aad" fill-opacity="1"><g transform="translate(162.475129, 66.531896)"><g><path d="M 3.230469 -8.457031 L 3.230469 -10.261719 L 0.839844 -10.261719 L 0.839844 -8.457031 Z M 3.1875 0 L 3.1875 -7.730469 L 0.878906 -7.730469 L 0.878906 0 Z M 3.1875 0 "/></g></g></g><g fill="#004aad" fill-opacity="1"><g transform="translate(166.541238, 66.531896)"><g><path d="M 3.691406 0.167969 C 5.632812 0.167969 7.214844 -0.628906 7.230469 -2.363281 C 7.230469 -3.691406 6.417969 -4.417969 4.097656 -4.851562 C 2.9375 -5.0625 2.65625 -5.230469 2.65625 -5.550781 C 2.671875 -5.941406 3.019531 -6.066406 3.691406 -6.066406 C 4.640625 -6.066406 5.703125 -5.832031 6.488281 -5.453125 L 6.78125 -7.339844 C 5.929688 -7.660156 4.921875 -7.898438 3.832031 -7.898438 C 2.011719 -7.898438 0.460938 -7.128906 0.433594 -5.410156 C 0.433594 -4.097656 1.214844 -3.425781 3.46875 -3.0625 C 4.640625 -2.867188 5.019531 -2.699219 5.019531 -2.292969 C 5.019531 -1.777344 4.445312 -1.679688 3.832031 -1.679688 C 2.796875 -1.679688 1.679688 -1.929688 0.671875 -2.417969 L 0.335938 -0.53125 C 1.3125 -0.0703125 2.347656 0.167969 3.691406 0.167969 Z M 3.691406 0.167969 "/></g></g></g><g fill="#004aad" fill-opacity="1"><g transform="translate(174.114535, 66.531896)"><g><path d="M 4.054688 -7.898438 C 3.0625 -7.898438 2.070312 -7.746094 1.203125 -7.480469 L 1.425781 -5.578125 C 2.109375 -5.84375 2.9375 -6 3.804688 -6 C 5.003906 -6 5.59375 -5.550781 5.59375 -4.683594 L 5.59375 -4.628906 C 4.992188 -4.683594 4.152344 -4.726562 3.441406 -4.726562 C 1.300781 -4.726562 0.363281 -3.707031 0.363281 -2.292969 C 0.363281 -0.839844 1.441406 0.167969 3.0625 0.167969 C 4.292969 0.167969 5.171875 -0.347656 5.605469 -0.980469 L 5.605469 0 L 7.914062 0 L 7.914062 -4.515625 C 7.914062 -6.597656 6.738281 -7.898438 4.054688 -7.898438 Z M 3.84375 -1.648438 C 3.046875 -1.648438 2.574219 -1.945312 2.574219 -2.503906 C 2.574219 -3.0625 2.964844 -3.441406 4.097656 -3.441406 C 4.683594 -3.441406 5.144531 -3.410156 5.59375 -3.355469 L 5.59375 -3.160156 C 5.523438 -2.277344 4.949219 -1.648438 3.84375 -1.648438 Z M 3.84375 -1.648438 "/></g></g></g><g fill="#004aad" fill-opacity="1"><g transform="translate(182.791695, 66.531896)"><g/></g></g><g fill="#004aad" fill-opacity="1"><g transform="translate(186.885749, 66.531896)"><g><path d="M 10.78125 -7.898438 C 9.605469 -7.898438 8.585938 -7.367188 7.984375 -6.558594 C 7.550781 -7.410156 6.753906 -7.898438 5.621094 -7.898438 C 4.53125 -7.898438 3.707031 -7.4375 3.1875 -6.738281 L 3.1875 -7.730469 L 0.878906 -7.730469 L 0.878906 0 L 3.1875 0 L 3.1875 -4.515625 C 3.46875 -5.269531 4.082031 -5.859375 4.878906 -5.859375 C 5.621094 -5.859375 6.054688 -5.398438 6.054688 -4.265625 L 6.054688 0 L 8.359375 0 L 8.359375 -4.558594 C 8.625 -5.300781 9.226562 -5.859375 10.023438 -5.859375 C 10.792969 -5.859375 11.226562 -5.300781 11.226562 -4.265625 L 11.226562 0 L 13.535156 0 L 13.535156 -4.710938 C 13.535156 -6.667969 12.597656 -7.898438 10.78125 -7.898438 Z M 10.78125 -7.898438 "/></g></g></g><g fill="#004aad" fill-opacity="1"><g transform="translate(201.180004, 66.531896)"><g><path d="M 4.054688 -7.898438 C 3.0625 -7.898438 2.070312 -7.746094 1.203125 -7.480469 L 1.425781 -5.578125 C 2.109375 -5.84375 2.9375 -6 3.804688 -6 C 5.003906 -6 5.59375 -5.550781 5.59375 -4.683594 L 5.59375 -4.628906 C 4.992188 -4.683594 4.152344 -4.726562 3.441406 -4.726562 C 1.300781 -4.726562 0.363281 -3.707031 0.363281 -2.292969 C 0.363281 -0.839844 1.441406 0.167969 3.0625 0.167969 C 4.292969 0.167969 5.171875 -0.347656 5.605469 -0.980469 L 5.605469 0 L 7.914062 0 L 7.914062 -4.515625 C 7.914062 -6.597656 6.738281 -7.898438 4.054688 -7.898438 Z M 3.84375 -1.648438 C 3.046875 -1.648438 2.574219 -1.945312 2.574219 -2.503906 C 2.574219 -3.0625 2.964844 -3.441406 4.097656 -3.441406 C 4.683594 -3.441406 5.144531 -3.410156 5.59375 -3.355469 L 5.59375 -3.160156 C 5.523438 -2.277344 4.949219 -1.648438 3.84375 -1.648438 Z M 3.84375 -1.648438 "/></g></g></g><g fill="#004aad" fill-opacity="1"><g transform="translate(209.857164, 66.531896)"><g><path d="M 4.195312 0.167969 C 4.867188 0.167969 5.691406 0 6.347656 -0.363281 L 5.929688 -2.109375 C 5.480469 -1.914062 5.046875 -1.832031 4.65625 -1.832031 C 4.070312 -1.832031 3.734375 -2.210938 3.734375 -2.851562 L 3.734375 -5.832031 L 6.097656 -5.832031 L 6.097656 -7.730469 L 3.734375 -7.730469 L 3.734375 -9.421875 L 2.824219 -9.421875 L 0.417969 -6.863281 L 0.417969 -5.832031 L 1.425781 -5.832031 L 1.425781 -2.53125 C 1.425781 -0.769531 2.445312 0.167969 4.195312 0.167969 Z M 4.195312 0.167969 "/></g></g></g><g fill="#004aad" fill-opacity="1"><g transform="translate(216.647991, 66.531896)"><g><path d="M 3.1875 0 L 3.1875 -10.320312 L 0.878906 -10.320312 L 0.878906 0 Z M 3.1875 0 "/></g></g></g><g fill="#004aad" fill-opacity="1"><g transform="translate(220.7141, 66.531896)"><g><path d="M 4.054688 -7.898438 C 3.0625 -7.898438 2.070312 -7.746094 1.203125 -7.480469 L 1.425781 -5.578125 C 2.109375 -5.84375 2.9375 -6 3.804688 -6 C 5.003906 -6 5.59375 -5.550781 5.59375 -4.683594 L 5.59375 -4.628906 C 4.992188 -4.683594 4.152344 -4.726562 3.441406 -4.726562 C 1.300781 -4.726562 0.363281 -3.707031 0.363281 -2.292969 C 0.363281 -0.839844 1.441406 0.167969 3.0625 0.167969 C 4.292969 0.167969 5.171875 -0.347656 5.605469 -0.980469 L 5.605469 0 L 7.914062 0 L 7.914062 -4.515625 C 7.914062 -6.597656 6.738281 -7.898438 4.054688 -7.898438 Z M 3.84375 -1.648438 C 3.046875 -1.648438 2.574219 -1.945312 2.574219 -2.503906 C 2.574219 -3.0625 2.964844 -3.441406 4.097656 -3.441406 C 4.683594 -3.441406 5.144531 -3.410156 5.59375 -3.355469 L 5.59375 -3.160156 C 5.523438 -2.277344 4.949219 -1.648438 3.84375 -1.648438 Z M 3.84375 -1.648438 "/></g></g></g><g fill="#004aad" fill-opacity="1"><g transform="translate(229.391259, 66.531896)"><g><path d="M 5.71875 0.167969 C 7.773438 0.167969 9.410156 -1.511719 9.410156 -3.902344 C 9.410156 -6.277344 7.800781 -7.898438 5.703125 -7.898438 C 4.726562 -7.898438 3.84375 -7.59375 3.1875 -6.878906 L 3.1875 -10.320312 L 0.878906 -10.320312 L 0.878906 0 L 3.1875 0 L 3.1875 -0.867188 C 3.84375 -0.152344 4.738281 0.167969 5.71875 0.167969 Z M 5.1875 -1.816406 C 3.929688 -1.816406 3.1875 -2.742188 3.1875 -3.859375 C 3.1875 -5.101562 3.972656 -5.914062 5.1875 -5.914062 C 6.320312 -5.914062 7.101562 -5.089844 7.101562 -3.886719 C 7.101562 -2.640625 6.332031 -1.816406 5.1875 -1.816406 Z M 5.1875 -1.816406 "/></g></g></g><g fill="#004aad" fill-opacity="1"><g transform="translate(239.320209, 66.531896)"><g/></g></g><g fill="#ff6300" fill-opacity="1"><g transform="translate(246.117132, 66.560511)"><g><path d="M 3.1875 2.40625 L 3.1875 -0.851562 C 3.84375 -0.140625 4.726562 0.167969 5.703125 0.167969 C 7.800781 0.167969 9.40625 -1.453125 9.40625 -3.84375 C 9.40625 -6.222656 7.773438 -7.898438 5.71875 -7.898438 C 4.738281 -7.898438 3.84375 -7.578125 3.1875 -6.863281 L 3.1875 -7.730469 L 0.878906 -7.730469 L 0.878906 2.40625 Z M 5.1875 -1.816406 C 4.011719 -1.816406 3.1875 -2.601562 3.1875 -3.871094 C 3.203125 -4.976562 3.929688 -5.914062 5.1875 -5.914062 C 6.332031 -5.914062 7.101562 -5.089844 7.101562 -3.84375 C 7.101562 -2.640625 6.320312 -1.816406 5.1875 -1.816406 Z M 5.1875 -1.816406 "/></g></g></g><g fill="#ff6300" fill-opacity="1"><g transform="translate(256.053983, 66.560511)"><g><path d="M 4.054688 -7.898438 C 3.0625 -7.898438 2.070312 -7.746094 1.203125 -7.480469 L 1.425781 -5.578125 C 2.109375 -5.84375 2.9375 -5.996094 3.800781 -5.996094 C 5.003906 -5.996094 5.589844 -5.550781 5.589844 -4.683594 L 5.589844 -4.628906 C 4.992188 -4.683594 4.152344 -4.726562 3.4375 -4.726562 C 1.300781 -4.726562 0.363281 -3.703125 0.363281 -2.292969 C 0.363281 -0.839844 1.441406 0.167969 3.0625 0.167969 C 4.292969 0.167969 5.171875 -0.347656 5.605469 -0.980469 L 5.605469 0 L 7.914062 0 L 7.914062 -4.515625 C 7.914062 -6.597656 6.738281 -7.898438 4.054688 -7.898438 Z M 3.84375 -1.648438 C 3.046875 -1.648438 2.570312 -1.941406 2.570312 -2.503906 C 2.570312 -3.0625 2.964844 -3.4375 4.097656 -3.4375 C 4.683594 -3.4375 5.144531 -3.410156 5.589844 -3.355469 L 5.589844 -3.160156 C 5.523438 -2.277344 4.949219 -1.648438 3.84375 -1.648438 Z M 3.84375 -1.648438 "/></g></g></g><g fill="#ff6300" fill-opacity="1"><g transform="translate(264.732997, 66.560511)"><g><path d="M 3.230469 -8.457031 L 3.230469 -10.261719 L 0.839844 -10.261719 L 0.839844 -8.457031 Z M 3.1875 0 L 3.1875 -7.730469 L 0.878906 -7.730469 L 0.878906 0 Z M 3.1875 0 "/></g></g></g><g fill="#ff6300" fill-opacity="1"><g transform="translate(268.799975, 66.560511)"><g><path d="M 3.691406 0.167969 C 5.632812 0.167969 7.214844 -0.628906 7.226562 -2.363281 C 7.226562 -3.691406 6.417969 -4.417969 4.097656 -4.851562 C 2.9375 -5.058594 2.65625 -5.226562 2.65625 -5.550781 C 2.671875 -5.941406 3.019531 -6.066406 3.691406 -6.066406 C 4.640625 -6.066406 5.703125 -5.828125 6.488281 -5.453125 L 6.78125 -7.339844 C 5.925781 -7.660156 4.921875 -7.898438 3.832031 -7.898438 C 2.011719 -7.898438 0.460938 -7.128906 0.433594 -5.410156 C 0.433594 -4.097656 1.214844 -3.425781 3.46875 -3.0625 C 4.640625 -2.867188 5.019531 -2.699219 5.019531 -2.292969 C 5.019531 -1.773438 4.445312 -1.675781 3.832031 -1.675781 C 2.796875 -1.675781 1.675781 -1.929688 0.671875 -2.417969 L 0.335938 -0.53125 C 1.3125 -0.0703125 2.347656 0.167969 3.691406 0.167969 Z M 3.691406 0.167969 "/></g></g></g><g fill="#ff6300" fill-opacity="1"><g transform="translate(276.374891, 66.560511)"><g><path d="M 4.054688 -7.898438 C 3.0625 -7.898438 2.070312 -7.746094 1.203125 -7.480469 L 1.425781 -5.578125 C 2.109375 -5.84375 2.9375 -5.996094 3.800781 -5.996094 C 5.003906 -5.996094 5.589844 -5.550781 5.589844 -4.683594 L 5.589844 -4.628906 C 4.992188 -4.683594 4.152344 -4.726562 3.4375 -4.726562 C 1.300781 -4.726562 0.363281 -3.703125 0.363281 -2.292969 C 0.363281 -0.839844 1.441406 0.167969 3.0625 0.167969 C 4.292969 0.167969 5.171875 -0.347656 5.605469 -0.980469 L 5.605469 0 L 7.914062 0 L 7.914062 -4.515625 C 7.914062 -6.597656 6.738281 -7.898438 4.054688 -7.898438 Z M 3.84375 -1.648438 C 3.046875 -1.648438 2.570312 -1.941406 2.570312 -2.503906 C 2.570312 -3.0625 2.964844 -3.4375 4.097656 -3.4375 C 4.683594 -3.4375 5.144531 -3.410156 5.589844 -3.355469 L 5.589844 -3.160156 C 5.523438 -2.277344 4.949219 -1.648438 3.84375 -1.648438 Z M 3.84375 -1.648438 "/></g></g></g><g fill="#ff6300" fill-opacity="1"><g transform="translate(285.053905, 66.560511)"><g><path d="M 4.304688 0.167969 C 5.285156 0.167969 6.179688 -0.152344 6.835938 -0.867188 L 6.835938 0 L 9.128906 0 L 9.128906 -10.316406 L 6.835938 -10.316406 L 6.835938 -6.878906 C 6.179688 -7.589844 5.296875 -7.898438 4.320312 -7.898438 C 2.222656 -7.898438 0.601562 -6.277344 0.601562 -3.898438 C 0.601562 -1.511719 2.25 0.167969 4.304688 0.167969 Z M 4.835938 -1.816406 C 3.691406 -1.816406 2.90625 -2.640625 2.90625 -3.886719 C 2.90625 -5.089844 3.703125 -5.914062 4.835938 -5.914062 C 6.054688 -5.914062 6.835938 -5.101562 6.835938 -3.859375 C 6.835938 -2.738281 6.09375 -1.816406 4.835938 -1.816406 Z M 4.835938 -1.816406 "/></g></g></g><g fill="#ff6300" fill-opacity="1"><g transform="translate(295.07461, 66.560511)"><g><path d="M 8.304688 -3.1875 C 8.457031 -3.59375 8.554688 -4.011719 8.554688 -4.5 C 8.554688 -6.445312 6.949219 -7.898438 4.726562 -7.898438 C 2.207031 -7.898438 0.515625 -6.191406 0.515625 -3.871094 C 0.515625 -1.480469 2.363281 0.167969 4.824219 0.167969 C 5.914062 0.167969 6.808594 -0.0546875 7.6875 -0.613281 L 7.15625 -2.304688 C 6.527344 -1.902344 5.691406 -1.707031 5.019531 -1.707031 C 3.886719 -1.707031 3.0625 -2.167969 2.835938 -3.1875 Z M 4.65625 -6.039062 C 5.605469 -6.039062 6.25 -5.550781 6.289062 -4.558594 L 2.835938 -4.542969 C 3.035156 -5.492188 3.648438 -6.039062 4.65625 -6.039062 Z M 4.65625 -6.039062 "/></g></g></g><g fill="#ff6300" fill-opacity="1"><g transform="translate(304.144957, 66.560511)"><g><path d="M 5.816406 -7.730469 L 3.1875 -4.683594 L 3.1875 -10.316406 L 0.878906 -10.316406 L 0.878906 0 L 3.1875 0 L 3.1875 -3.132812 L 5.84375 0 L 8.738281 0 L 5.296875 -3.914062 L 8.738281 -7.730469 Z M 5.816406 -7.730469 "/></g></g></g><g fill="#ff6300" fill-opacity="1"><g transform="translate(313.089515, 66.560511)"><g><path d="M 5.730469 -7.898438 C 4.558594 -7.898438 3.71875 -7.410156 3.1875 -6.695312 L 3.1875 -10.316406 L 0.878906 -10.316406 L 0.878906 0 L 3.1875 0 L 3.1875 -4.472656 C 3.480469 -5.269531 4.152344 -5.84375 5.003906 -5.84375 C 5.984375 -5.84375 6.472656 -5.296875 6.472656 -4.25 L 6.472656 0 L 8.777344 0 L 8.777344 -4.683594 C 8.777344 -6.710938 7.589844 -7.898438 5.730469 -7.898438 Z M 5.730469 -7.898438 "/></g></g></g><g fill="#ff6300" fill-opacity="1"><g transform="translate(322.635034, 66.560511)"><g><path d="M 4.835938 0.167969 C 7.351562 0.167969 9.171875 -1.550781 9.171875 -3.886719 C 9.171875 -6.207031 7.351562 -7.898438 4.851562 -7.898438 C 2.347656 -7.898438 0.515625 -6.207031 0.515625 -3.871094 C 0.515625 -1.539062 2.335938 0.167969 4.835938 0.167969 Z M 4.851562 -1.816406 C 3.691406 -1.816406 2.851562 -2.640625 2.851562 -3.898438 C 2.851562 -5.117188 3.691406 -5.925781 4.835938 -5.925781 C 5.996094 -5.925781 6.835938 -5.117188 6.835938 -3.871094 C 6.835938 -2.640625 5.996094 -1.816406 4.851562 -1.816406 Z M 4.851562 -1.816406 "/></g></g></g><g fill="#ff6300" fill-opacity="1"><g transform="translate(332.320309, 66.560511)"><g><path d="M 0.671875 0 L 3.1875 0 L 3.1875 -2.179688 L 0.671875 -2.179688 Z M 0.671875 0 "/></g></g></g><g fill="#ff6300" fill-opacity="1"><g transform="translate(336.177645, 66.560511)"><g><path d="M 4.710938 0.152344 C 5.855469 0.152344 6.710938 -0.0703125 7.746094 -0.8125 L 6.835938 -2.433594 C 6.222656 -2.011719 5.589844 -1.789062 4.933594 -1.789062 C 3.734375 -1.789062 2.867188 -2.542969 2.867188 -3.871094 C 2.867188 -5.199219 3.734375 -5.941406 4.921875 -5.941406 C 5.605469 -5.941406 6.152344 -5.730469 6.808594 -5.257812 L 7.746094 -6.917969 C 6.808594 -7.632812 5.84375 -7.898438 4.710938 -7.898438 C 2.472656 -7.898438 0.515625 -6.332031 0.515625 -3.871094 C 0.515625 -1.410156 2.375 0.152344 4.710938 0.152344 Z M 4.710938 0.152344 "/></g></g></g><g fill="#ff6300" fill-opacity="1"><g transform="translate(344.143894, 66.560511)"><g><path d="M 4.835938 0.167969 C 7.351562 0.167969 9.171875 -1.550781 9.171875 -3.886719 C 9.171875 -6.207031 7.351562 -7.898438 4.851562 -7.898438 C 2.347656 -7.898438 0.515625 -6.207031 0.515625 -3.871094 C 0.515625 -1.539062 2.335938 0.167969 4.835938 0.167969 Z M 4.851562 -1.816406 C 3.691406 -1.816406 2.851562 -2.640625 2.851562 -3.898438 C 2.851562 -5.117188 3.691406 -5.925781 4.835938 -5.925781 C 5.996094 -5.925781 6.835938 -5.117188 6.835938 -3.871094 C 6.835938 -2.640625 5.996094 -1.816406 4.851562 -1.816406 Z M 4.851562 -1.816406 "/></g></g></g><g fill="#ff6300" fill-opacity="1"><g transform="translate(353.829169, 66.560511)"><g><path d="M 10.777344 -7.898438 C 9.605469 -7.898438 8.582031 -7.367188 7.980469 -6.554688 C 7.550781 -7.410156 6.753906 -7.898438 5.621094 -7.898438 C 4.53125 -7.898438 3.703125 -7.4375 3.1875 -6.738281 L 3.1875 -7.730469 L 0.878906 -7.730469 L 0.878906 0 L 3.1875 0 L 3.1875 -4.515625 C 3.46875 -5.269531 4.082031 -5.855469 4.878906 -5.855469 C 5.621094 -5.855469 6.054688 -5.394531 6.054688 -4.265625 L 6.054688 0 L 8.359375 0 L 8.359375 -4.558594 C 8.625 -5.296875 9.226562 -5.855469 10.023438 -5.855469 C 10.792969 -5.855469 11.226562 -5.296875 11.226562 -4.265625 L 11.226562 0 L 13.53125 0 L 13.53125 -4.710938 C 13.53125 -6.667969 12.59375 -7.898438 10.777344 -7.898438 Z M 10.777344 -7.898438 "/></g></g></g><g fill="#ff6300" fill-opacity="1"><g transform="translate(368.115014, 66.560511)"><g/></g></g></svg>