<svg xmlns="http://www.w3.org/2000/svg" xmlns:xlink="http://www.w3.org/1999/xlink" width="500" zoomAndPan="magnify" viewBox="0 0 375 374.999991" height="500" preserveAspectRatio="xMidYMid meet" version="1.0"><defs><g/></defs><g fill="#004aad" fill-opacity="1"><g transform="translate(0.228927, 263.68552)"><g><path d="M 61.667969 47.5 L 61.667969 -12.222656 C 74.167969 -1.390625 90.835938 3.332031 107.226562 3.332031 C 152.226562 3.332031 187.226562 -28.613281 187.226562 -75.558594 C 187.226562 -123.058594 151.113281 -156.949219 101.113281 -156.949219 C 51.113281 -156.949219 15.277344 -123.058594 15.277344 -73.890625 L 15.277344 47.5 Z M 101.113281 -35.835938 C 78.058594 -35.835938 61.667969 -51.945312 61.667969 -76.390625 C 61.667969 -101.113281 78.335938 -117.503906 101.390625 -117.503906 C 124.449219 -117.503906 140.835938 -101.113281 140.835938 -76.667969 C 140.835938 -51.945312 124.167969 -35.835938 101.113281 -35.835938 Z M 101.113281 -35.835938 "/></g></g></g><g fill="#ff6300" fill-opacity="1"><g transform="translate(178.727599, 263.54454)"><g><path d="M 135.878906 -205.070312 L 135.878906 -141.992188 C 123.375 -151.71875 107.257812 -156.996094 90.308594 -156.996094 C 45.292969 -156.996094 10.28125 -125.042969 10.28125 -78.082031 C 10.28125 -30.566406 46.40625 3.335938 96.421875 3.335938 C 146.4375 3.335938 182.285156 -30.566406 182.285156 -79.75 L 182.285156 -205.070312 Z M 96.144531 -36.125 C 73.082031 -36.125 56.6875 -52.519531 56.6875 -76.96875 C 56.6875 -101.703125 73.359375 -117.816406 96.421875 -117.816406 C 119.484375 -117.816406 135.878906 -101.703125 135.878906 -77.527344 C 135.878906 -52.519531 119.207031 -36.125 96.144531 -36.125 Z M 96.144531 -36.125 "/></g></g></g></svg>