<svg xmlns="http://www.w3.org/2000/svg" xmlns:xlink="http://www.w3.org/1999/xlink" width="500" zoomAndPan="magnify" viewBox="0 0 375 374.999991" height="500" preserveAspectRatio="xMidYMid meet" version="1.0"><defs><g/></defs><g fill="#ff6300" fill-opacity="1"><g transform="translate(178.959792, 203.249987)"><g><path d="M 17.246094 0.671875 C 21.167969 0.671875 24.75 -0.617188 27.382812 -3.472656 L 27.382812 0 L 36.566406 0 L 36.566406 -41.324219 L 27.382812 -41.324219 L 27.382812 -27.550781 C 24.75 -30.40625 21.222656 -31.636719 17.300781 -31.636719 C 8.902344 -31.636719 2.40625 -25.140625 2.40625 -15.621094 C 2.40625 -6.046875 9.015625 0.671875 17.246094 0.671875 Z M 19.375 -7.28125 C 14.78125 -7.28125 11.648438 -10.582031 11.648438 -15.566406 C 11.648438 -20.382812 14.839844 -23.6875 19.375 -23.6875 C 24.246094 -23.6875 27.382812 -20.4375 27.382812 -15.453125 C 27.382812 -10.976562 24.414062 -7.28125 19.375 -7.28125 Z M 19.375 -7.28125 "/></g></g></g><g fill="#ff6300" fill-opacity="1"><g transform="translate(219.10619, 203.249987)"><g><path d="M 33.261719 -12.765625 C 33.878906 -14.390625 34.269531 -16.070312 34.269531 -18.03125 C 34.269531 -25.8125 27.828125 -31.636719 18.925781 -31.636719 C 8.847656 -31.636719 2.070312 -24.804688 2.070312 -15.511719 C 2.070312 -5.933594 9.464844 0.671875 19.316406 0.671875 C 23.6875 0.671875 27.269531 -0.222656 30.796875 -2.464844 L 28.667969 -9.238281 C 26.148438 -7.617188 22.789062 -6.832031 20.101562 -6.832031 C 15.566406 -6.832031 12.261719 -8.679688 11.367188 -12.765625 Z M 18.644531 -24.191406 C 22.453125 -24.191406 25.03125 -22.230469 25.199219 -18.253906 L 11.367188 -18.199219 C 12.152344 -22.007812 14.613281 -24.191406 18.644531 -24.191406 Z M 18.644531 -24.191406 "/></g></g></g><g fill="#ff6300" fill-opacity="1"><g transform="translate(255.445115, 203.249987)"><g><path d="M 23.292969 -30.964844 L 12.765625 -18.757812 L 12.765625 -41.324219 L 3.527344 -41.324219 L 3.527344 0 L 12.765625 0 L 12.765625 -12.542969 L 23.40625 0 L 34.996094 0 L 21.222656 -15.679688 L 34.996094 -30.964844 Z M 23.292969 -30.964844 "/></g></g></g><g fill="#ff6300" fill-opacity="1"><g transform="translate(291.280112, 203.249987)"><g><path d="M 22.957031 -31.636719 C 18.253906 -31.636719 14.894531 -29.675781 12.765625 -26.820312 L 12.765625 -41.324219 L 3.527344 -41.324219 L 3.527344 0 L 12.765625 0 L 12.765625 -17.917969 C 13.941406 -21.109375 16.628906 -23.40625 20.046875 -23.40625 C 23.964844 -23.40625 25.925781 -21.222656 25.925781 -17.023438 L 25.925781 0 L 35.164062 0 L 35.164062 -18.757812 C 35.164062 -26.878906 30.40625 -31.636719 22.957031 -31.636719 Z M 22.957031 -31.636719 "/></g></g></g><g fill="#ff6300" fill-opacity="1"><g transform="translate(329.522774, 203.249987)"><g><path d="M 19.375 0.671875 C 29.453125 0.671875 36.734375 -6.214844 36.734375 -15.566406 C 36.734375 -24.863281 29.453125 -31.636719 19.429688 -31.636719 C 9.40625 -31.636719 2.070312 -24.863281 2.070312 -15.511719 C 2.070312 -6.160156 9.351562 0.671875 19.375 0.671875 Z M 19.429688 -7.28125 C 14.78125 -7.28125 11.421875 -10.582031 11.421875 -15.621094 C 11.421875 -20.496094 14.78125 -23.742188 19.375 -23.742188 C 24.023438 -23.742188 27.382812 -20.496094 27.382812 -15.511719 C 27.382812 -10.582031 24.023438 -7.28125 19.429688 -7.28125 Z M 19.429688 -7.28125 "/></g></g></g><g fill="#004aad" fill-opacity="1"><g transform="translate(6.623416, 204.316695)"><g><path d="M 14.011719 10.570312 L 14.011719 -3.75 C 16.898438 -0.613281 20.769531 0.738281 25.070312 0.738281 C 34.289062 0.738281 41.355469 -6.390625 41.355469 -16.898438 C 41.355469 -27.34375 34.164062 -34.71875 25.132812 -34.71875 C 20.832031 -34.71875 16.898438 -33.304688 14.011719 -30.171875 L 14.011719 -33.980469 L 3.871094 -33.980469 L 3.871094 10.570312 Z M 22.796875 -7.988281 C 17.636719 -7.988281 14.011719 -11.429688 14.011719 -17.023438 C 14.070312 -21.875 17.265625 -25.992188 22.796875 -25.992188 C 27.835938 -25.992188 31.214844 -22.367188 31.214844 -16.898438 C 31.214844 -11.613281 27.773438 -7.988281 22.796875 -7.988281 Z M 22.796875 -7.988281 "/></g></g></g><g fill="#004aad" fill-opacity="1"><g transform="translate(50.312271, 204.316695)"><g><path d="M 17.820312 -34.71875 C 13.457031 -34.71875 9.09375 -34.042969 5.285156 -32.875 L 6.269531 -24.519531 C 9.277344 -25.6875 12.90625 -26.363281 16.714844 -26.363281 C 22 -26.363281 24.578125 -24.394531 24.578125 -20.585938 L 24.578125 -20.339844 C 21.9375 -20.585938 18.25 -20.769531 15.117188 -20.769531 C 5.714844 -20.769531 1.597656 -16.285156 1.597656 -10.078125 C 1.597656 -3.6875 6.328125 0.738281 13.457031 0.738281 C 18.863281 0.738281 22.734375 -1.535156 24.640625 -4.300781 L 24.640625 0 L 34.78125 0 L 34.78125 -19.847656 C 34.78125 -29.003906 29.617188 -34.71875 17.820312 -34.71875 Z M 16.898438 -7.25 C 13.394531 -7.25 11.308594 -8.542969 11.308594 -11 C 11.308594 -13.457031 13.027344 -15.117188 18.003906 -15.117188 C 20.585938 -15.117188 22.613281 -14.992188 24.578125 -14.746094 L 24.578125 -13.886719 C 24.273438 -10.015625 21.753906 -7.25 16.898438 -7.25 Z M 16.898438 -7.25 "/></g></g></g><g fill="#004aad" fill-opacity="1"><g transform="translate(88.470887, 204.316695)"><g><path d="M 14.195312 -37.175781 L 14.195312 -45.105469 L 3.6875 -45.105469 L 3.6875 -37.175781 Z M 14.011719 0 L 14.011719 -33.980469 L 3.871094 -33.980469 L 3.871094 0 Z M 14.011719 0 "/></g></g></g><g fill="#004aad" fill-opacity="1"><g transform="translate(106.351985, 204.316695)"><g><path d="M 16.222656 0.738281 C 24.765625 0.738281 31.707031 -2.765625 31.769531 -10.386719 C 31.769531 -16.222656 28.207031 -19.417969 18.003906 -21.324219 C 12.90625 -22.246094 11.675781 -22.980469 11.675781 -24.394531 C 11.738281 -26.117188 13.273438 -26.667969 16.222656 -26.667969 C 20.402344 -26.667969 25.070312 -25.625 28.511719 -23.964844 L 29.804688 -32.261719 C 26.054688 -33.675781 21.628906 -34.71875 16.835938 -34.71875 C 8.847656 -34.71875 2.027344 -31.339844 1.90625 -23.78125 C 1.90625 -18.003906 5.347656 -15.054688 15.238281 -13.457031 C 20.402344 -12.597656 22.058594 -11.859375 22.058594 -10.078125 C 22.058594 -7.804688 19.539062 -7.375 16.835938 -7.375 C 12.289062 -7.375 7.375 -8.480469 2.949219 -10.628906 L 1.476562 -2.335938 C 5.777344 -0.308594 10.324219 0.738281 16.222656 0.738281 Z M 16.222656 0.738281 "/></g></g></g><g fill="#004aad" fill-opacity="1"><g transform="translate(139.656294, 204.316695)"><g><path d="M 17.820312 -34.71875 C 13.457031 -34.71875 9.09375 -34.042969 5.285156 -32.875 L 6.269531 -24.519531 C 9.277344 -25.6875 12.90625 -26.363281 16.714844 -26.363281 C 22 -26.363281 24.578125 -24.394531 24.578125 -20.585938 L 24.578125 -20.339844 C 21.9375 -20.585938 18.25 -20.769531 15.117188 -20.769531 C 5.714844 -20.769531 1.597656 -16.285156 1.597656 -10.078125 C 1.597656 -3.6875 6.328125 0.738281 13.457031 0.738281 C 18.863281 0.738281 22.734375 -1.535156 24.640625 -4.300781 L 24.640625 0 L 34.78125 0 L 34.78125 -19.847656 C 34.78125 -29.003906 29.617188 -34.71875 17.820312 -34.71875 Z M 16.898438 -7.25 C 13.394531 -7.25 11.308594 -8.542969 11.308594 -11 C 11.308594 -13.457031 13.027344 -15.117188 18.003906 -15.117188 C 20.585938 -15.117188 22.613281 -14.992188 24.578125 -14.746094 L 24.578125 -13.886719 C 24.273438 -10.015625 21.753906 -7.25 16.898438 -7.25 Z M 16.898438 -7.25 "/></g></g></g></svg>