<svg xmlns="http://www.w3.org/2000/svg" xmlns:xlink="http://www.w3.org/1999/xlink" width="500" zoomAndPan="magnify" viewBox="0 0 375 374.999991" height="500" preserveAspectRatio="xMidYMid meet" version="1.0"><defs><g/></defs><g fill="#004aad" fill-opacity="1"><g transform="translate(41.469239, 198.749987)"><g><path d="M 9.347656 7.050781 L 9.347656 -2.5 C 11.273438 -0.410156 13.855469 0.492188 16.726562 0.492188 C 22.875 0.492188 27.589844 -4.261719 27.589844 -11.273438 C 27.589844 -18.242188 22.792969 -23.164062 16.765625 -23.164062 C 13.898438 -23.164062 11.273438 -22.21875 9.347656 -20.128906 L 9.347656 -22.671875 L 2.582031 -22.671875 L 2.582031 7.050781 Z M 15.210938 -5.328125 C 11.765625 -5.328125 9.347656 -7.625 9.347656 -11.355469 C 9.386719 -14.59375 11.519531 -17.339844 15.210938 -17.339844 C 18.570312 -17.339844 20.824219 -14.921875 20.824219 -11.273438 C 20.824219 -7.75 18.53125 -5.328125 15.210938 -5.328125 Z M 15.210938 -5.328125 "/></g></g></g><g fill="#004aad" fill-opacity="1"><g transform="translate(70.614696, 198.749987)"><g><path d="M 11.886719 -23.164062 C 8.976562 -23.164062 6.066406 -22.710938 3.527344 -21.933594 L 4.179688 -16.355469 C 6.191406 -17.136719 8.609375 -17.585938 11.152344 -17.585938 C 14.675781 -17.585938 16.398438 -16.273438 16.398438 -13.734375 L 16.398438 -13.570312 C 14.636719 -13.734375 12.175781 -13.855469 10.085938 -13.855469 C 3.8125 -13.855469 1.066406 -10.863281 1.066406 -6.722656 C 1.066406 -2.460938 4.222656 0.492188 8.976562 0.492188 C 12.585938 0.492188 15.167969 -1.023438 16.4375 -2.871094 L 16.4375 0 L 23.203125 0 L 23.203125 -13.242188 C 23.203125 -19.351562 19.757812 -23.164062 11.886719 -23.164062 Z M 11.273438 -4.835938 C 8.9375 -4.835938 7.542969 -5.699219 7.542969 -7.339844 C 7.542969 -8.976562 8.691406 -10.085938 12.011719 -10.085938 C 13.734375 -10.085938 15.085938 -10.003906 16.398438 -9.839844 L 16.398438 -9.265625 C 16.191406 -6.683594 14.511719 -4.835938 11.273438 -4.835938 Z M 11.273438 -4.835938 "/></g></g></g><g fill="#004aad" fill-opacity="1"><g transform="translate(96.070852, 198.749987)"><g><path d="M 9.46875 -24.800781 L 9.46875 -30.089844 L 2.460938 -30.089844 L 2.460938 -24.800781 Z M 9.347656 0 L 9.347656 -22.671875 L 2.582031 -22.671875 L 2.582031 0 Z M 9.347656 0 "/></g></g></g><g fill="#004aad" fill-opacity="1"><g transform="translate(107.999577, 198.749987)"><g><path d="M 10.824219 0.492188 C 16.519531 0.492188 21.152344 -1.84375 21.195312 -6.929688 C 21.195312 -10.824219 18.816406 -12.953125 12.011719 -14.226562 C 8.609375 -14.839844 7.789062 -15.332031 7.789062 -16.273438 C 7.828125 -17.421875 8.855469 -17.792969 10.824219 -17.792969 C 13.609375 -17.792969 16.726562 -17.09375 19.023438 -15.988281 L 19.882812 -21.523438 C 17.382812 -22.464844 14.429688 -23.164062 11.234375 -23.164062 C 5.902344 -23.164062 1.351562 -20.90625 1.269531 -15.863281 C 1.269531 -12.011719 3.566406 -10.042969 10.167969 -8.976562 C 13.609375 -8.402344 14.71875 -7.910156 14.71875 -6.722656 C 14.71875 -5.207031 13.035156 -4.917969 11.234375 -4.917969 C 8.199219 -4.917969 4.917969 -5.65625 1.96875 -7.09375 L 0.984375 -1.558594 C 3.855469 -0.203125 6.886719 0.492188 10.824219 0.492188 Z M 10.824219 0.492188 "/></g></g></g><g fill="#004aad" fill-opacity="1"><g transform="translate(130.217353, 198.749987)"><g><path d="M 11.886719 -23.164062 C 8.976562 -23.164062 6.066406 -22.710938 3.527344 -21.933594 L 4.179688 -16.355469 C 6.191406 -17.136719 8.609375 -17.585938 11.152344 -17.585938 C 14.675781 -17.585938 16.398438 -16.273438 16.398438 -13.734375 L 16.398438 -13.570312 C 14.636719 -13.734375 12.175781 -13.855469 10.085938 -13.855469 C 3.8125 -13.855469 1.066406 -10.863281 1.066406 -6.722656 C 1.066406 -2.460938 4.222656 0.492188 8.976562 0.492188 C 12.585938 0.492188 15.167969 -1.023438 16.4375 -2.871094 L 16.4375 0 L 23.203125 0 L 23.203125 -13.242188 C 23.203125 -19.351562 19.757812 -23.164062 11.886719 -23.164062 Z M 11.273438 -4.835938 C 8.9375 -4.835938 7.542969 -5.699219 7.542969 -7.339844 C 7.542969 -8.976562 8.691406 -10.085938 12.011719 -10.085938 C 13.734375 -10.085938 15.085938 -10.003906 16.398438 -9.839844 L 16.398438 -9.265625 C 16.191406 -6.683594 14.511719 -4.835938 11.273438 -4.835938 Z M 11.273438 -4.835938 "/></g></g></g><g fill="#004aad" fill-opacity="1"><g transform="translate(155.67351, 198.749987)"><g/></g></g><g fill="#004aad" fill-opacity="1"><g transform="translate(167.68422, 198.749987)"><g><path d="M 31.605469 -23.164062 C 28.164062 -23.164062 25.171875 -21.605469 23.40625 -19.226562 C 22.136719 -21.726562 19.800781 -23.164062 16.480469 -23.164062 C 13.28125 -23.164062 10.863281 -21.808594 9.347656 -19.757812 L 9.347656 -22.671875 L 2.582031 -22.671875 L 2.582031 0 L 9.347656 0 L 9.347656 -13.242188 C 10.167969 -15.457031 11.96875 -17.175781 14.308594 -17.175781 C 16.480469 -17.175781 17.75 -15.824219 17.75 -12.503906 L 17.75 0 L 24.515625 0 L 24.515625 -13.363281 C 25.292969 -15.535156 27.058594 -17.175781 29.394531 -17.175781 C 31.648438 -17.175781 32.917969 -15.535156 32.917969 -12.503906 L 32.917969 0 L 39.683594 0 L 39.683594 -13.816406 C 39.683594 -19.554688 36.9375 -23.164062 31.605469 -23.164062 Z M 31.605469 -23.164062 "/></g></g></g><g fill="#004aad" fill-opacity="1"><g transform="translate(209.619238, 198.749987)"><g><path d="M 11.886719 -23.164062 C 8.976562 -23.164062 6.066406 -22.710938 3.527344 -21.933594 L 4.179688 -16.355469 C 6.191406 -17.136719 8.609375 -17.585938 11.152344 -17.585938 C 14.675781 -17.585938 16.398438 -16.273438 16.398438 -13.734375 L 16.398438 -13.570312 C 14.636719 -13.734375 12.175781 -13.855469 10.085938 -13.855469 C 3.8125 -13.855469 1.066406 -10.863281 1.066406 -6.722656 C 1.066406 -2.460938 4.222656 0.492188 8.976562 0.492188 C 12.585938 0.492188 15.167969 -1.023438 16.4375 -2.871094 L 16.4375 0 L 23.203125 0 L 23.203125 -13.242188 C 23.203125 -19.351562 19.757812 -23.164062 11.886719 -23.164062 Z M 11.273438 -4.835938 C 8.9375 -4.835938 7.542969 -5.699219 7.542969 -7.339844 C 7.542969 -8.976562 8.691406 -10.085938 12.011719 -10.085938 C 13.734375 -10.085938 15.085938 -10.003906 16.398438 -9.839844 L 16.398438 -9.265625 C 16.191406 -6.683594 14.511719 -4.835938 11.273438 -4.835938 Z M 11.273438 -4.835938 "/></g></g></g><g fill="#004aad" fill-opacity="1"><g transform="translate(235.075383, 198.749987)"><g><path d="M 12.296875 0.492188 C 14.265625 0.492188 16.683594 0 18.613281 -1.066406 L 17.382812 -6.191406 C 16.070312 -5.617188 14.800781 -5.371094 13.652344 -5.371094 C 11.929688 -5.371094 10.945312 -6.476562 10.945312 -8.363281 L 10.945312 -17.09375 L 17.875 -17.09375 L 17.875 -22.671875 L 10.945312 -22.671875 L 10.945312 -27.628906 L 8.28125 -27.628906 L 1.230469 -20.128906 L 1.230469 -17.09375 L 4.179688 -17.09375 L 4.179688 -7.421875 C 4.179688 -2.253906 7.175781 0.492188 12.296875 0.492188 Z M 12.296875 0.492188 "/></g></g></g><g fill="#004aad" fill-opacity="1"><g transform="translate(254.997577, 198.749987)"><g><path d="M 9.347656 0 L 9.347656 -30.253906 L 2.582031 -30.253906 L 2.582031 0 Z M 9.347656 0 "/></g></g></g><g fill="#004aad" fill-opacity="1"><g transform="translate(266.926302, 198.749987)"><g><path d="M 11.886719 -23.164062 C 8.976562 -23.164062 6.066406 -22.710938 3.527344 -21.933594 L 4.179688 -16.355469 C 6.191406 -17.136719 8.609375 -17.585938 11.152344 -17.585938 C 14.675781 -17.585938 16.398438 -16.273438 16.398438 -13.734375 L 16.398438 -13.570312 C 14.636719 -13.734375 12.175781 -13.855469 10.085938 -13.855469 C 3.8125 -13.855469 1.066406 -10.863281 1.066406 -6.722656 C 1.066406 -2.460938 4.222656 0.492188 8.976562 0.492188 C 12.585938 0.492188 15.167969 -1.023438 16.4375 -2.871094 L 16.4375 0 L 23.203125 0 L 23.203125 -13.242188 C 23.203125 -19.351562 19.757812 -23.164062 11.886719 -23.164062 Z M 11.273438 -4.835938 C 8.9375 -4.835938 7.542969 -5.699219 7.542969 -7.339844 C 7.542969 -8.976562 8.691406 -10.085938 12.011719 -10.085938 C 13.734375 -10.085938 15.085938 -10.003906 16.398438 -9.839844 L 16.398438 -9.265625 C 16.191406 -6.683594 14.511719 -4.835938 11.273438 -4.835938 Z M 11.273438 -4.835938 "/></g></g></g><g fill="#004aad" fill-opacity="1"><g transform="translate(292.382447, 198.749987)"><g><path d="M 16.765625 0.492188 C 22.792969 0.492188 27.589844 -4.425781 27.589844 -11.4375 C 27.589844 -18.40625 22.875 -23.164062 16.726562 -23.164062 C 13.855469 -23.164062 11.273438 -22.261719 9.347656 -20.167969 L 9.347656 -30.253906 L 2.582031 -30.253906 L 2.582031 0 L 9.347656 0 L 9.347656 -2.542969 C 11.273438 -0.449219 13.898438 0.492188 16.765625 0.492188 Z M 15.210938 -5.328125 C 11.519531 -5.328125 9.347656 -8.035156 9.347656 -11.316406 C 9.347656 -14.964844 11.644531 -17.339844 15.210938 -17.339844 C 18.53125 -17.339844 20.824219 -14.921875 20.824219 -11.398438 C 20.824219 -7.75 18.570312 -5.328125 15.210938 -5.328125 Z M 15.210938 -5.328125 "/></g></g></g><g fill="#004aad" fill-opacity="1"><g transform="translate(321.523908, 198.749987)"><g/></g></g></svg>